<?xml version="1.0" encoding="UTF-8" standalone="no"?>
<!DOCTYPE svg PUBLIC "-//W3C//DTD SVG 1.1//EN"
 "http://www.w3.org/Graphics/SVG/1.1/DTD/svg11.dtd">
<!-- Generated by graphviz version 2.43.0 (0)
 -->
<!-- Title: dependency&#45;cruiser output Pages: 1 -->
<svg width="382pt" height="384pt"
 viewBox="0.00 0.00 382.00 384.00" xmlns="http://www.w3.org/2000/svg" xmlns:xlink="http://www.w3.org/1999/xlink">
<g id="graph0" class="graph" transform="scale(1 1) rotate(0) translate(4 380)">
<title>dependency&#45;cruiser output</title>
<polygon fill="white" stroke="transparent" points="-4,4 -4,-380 378,-380 378,4 -4,4"/>
<g id="clust1" class="cluster">
<title>cluster_src</title>
<path fill="#ffffff" stroke="black" stroke-width="2" d="M20,-8C20,-8 354,-8 354,-8 360,-8 366,-14 366,-20 366,-20 366,-356 366,-356 366,-362 360,-368 354,-368 354,-368 20,-368 20,-368 14,-368 8,-362 8,-356 8,-356 8,-20 8,-20 8,-14 14,-8 20,-8"/>
<text text-anchor="middle" x="187" y="-356.8" font-family="Helvetica,sans-Serif" font-weight="bold" font-size="9.00">src</text>
</g>
<g id="clust2" class="cluster">
<title>cluster_src/01&#45;frameworks&#45;and&#45;drivers</title>
<path fill="#ffffff" stroke="black" stroke-width="2" d="M105,-264C105,-264 236,-264 236,-264 242,-264 248,-270 248,-276 248,-276 248,-304 248,-304 248,-310 242,-316 236,-316 236,-316 105,-316 105,-316 99,-316 93,-310 93,-304 93,-304 93,-276 93,-276 93,-270 99,-264 105,-264"/>
<text text-anchor="middle" x="170.5" y="-304.8" font-family="Helvetica,sans-Serif" font-weight="bold" font-size="9.00">01&#45;frameworks&#45;and&#45;drivers</text>
</g>
<g id="clust3" class="cluster">
<title>cluster_src/02&#45;interface&#45;adapters</title>
<path fill="#ffffff" stroke="black" stroke-width="2" d="M28,-110C28,-110 178,-110 178,-110 184,-110 190,-116 190,-122 190,-122 190,-244 190,-244 190,-250 184,-256 178,-256 178,-256 28,-256 28,-256 22,-256 16,-250 16,-244 16,-244 16,-122 16,-122 16,-116 22,-110 28,-110"/>
<text text-anchor="middle" x="103" y="-244.8" font-family="Helvetica,sans-Serif" font-weight="bold" font-size="9.00">02&#45;interface&#45;adapters</text>
</g>
<g id="clust4" class="cluster">
<title>cluster_src/02&#45;interface&#45;adapters/controllers</title>
<path fill="#ffffff" stroke="black" stroke-width="2" d="M72,-178C72,-178 170,-178 170,-178 176,-178 182,-184 182,-190 182,-190 182,-218 182,-218 182,-224 176,-230 170,-230 170,-230 72,-230 72,-230 66,-230 60,-224 60,-218 60,-218 60,-190 60,-190 60,-184 66,-178 72,-178"/>
<text text-anchor="middle" x="121" y="-218.8" font-family="Helvetica,sans-Serif" font-weight="bold" font-size="9.00">controllers</text>
</g>
<g id="clust5" class="cluster">
<title>cluster_src/02&#45;interface&#45;adapters/repositories</title>
<path fill="#ffffff" stroke="black" stroke-width="2" d="M36,-118C36,-118 170,-118 170,-118 176,-118 182,-124 182,-130 182,-130 182,-158 182,-158 182,-164 176,-170 170,-170 170,-170 36,-170 36,-170 30,-170 24,-164 24,-158 24,-158 24,-130 24,-130 24,-124 30,-118 36,-118"/>
<text text-anchor="middle" x="103" y="-158.8" font-family="Helvetica,sans-Serif" font-weight="bold" font-size="9.00">repositories</text>
</g>
<g id="clust6" class="cluster">
<title>cluster_src/03&#45;use&#45;cases</title>
<path fill="#ffffff" stroke="black" stroke-width="2" d="M222,-76C222,-76 346,-76 346,-76 352,-76 358,-82 358,-88 358,-88 358,-158 358,-158 358,-164 352,-170 346,-170 346,-170 222,-170 222,-170 216,-170 210,-164 210,-158 210,-158 210,-88 210,-88 210,-82 216,-76 222,-76"/>
<text text-anchor="middle" x="284" y="-158.8" font-family="Helvetica,sans-Serif" font-weight="bold" font-size="9.00">03&#45;use&#45;cases</text>
</g>
<g id="clust7" class="cluster">
<title>cluster_src/04&#45;entities</title>
<path fill="#ffffff" stroke="black" stroke-width="2" d="M206,-16C206,-16 284,-16 284,-16 290,-16 296,-22 296,-28 296,-28 296,-56 296,-56 296,-62 290,-68 284,-68 284,-68 206,-68 206,-68 200,-68 194,-62 194,-56 194,-56 194,-28 194,-28 194,-22 200,-16 206,-16"/>
<text text-anchor="middle" x="245" y="-56.8" font-family="Helvetica,sans-Serif" font-weight="bold" font-size="9.00">04&#45;entities</text>
</g>
<!-- src/01&#45;frameworks&#45;and&#45;drivers/app.ts -->
<g id="node1" class="node">
<title>src/01&#45;frameworks&#45;and&#45;drivers/app.ts</title>
<g id="a_node1"><a xlink:href="src/01-frameworks-and-drivers/app.ts" xlink:title="app.ts">
<path fill="#a7d7fd" stroke="black" d="M184,-290C184,-290 142,-290 142,-290 139,-290 136,-287 136,-284 136,-284 136,-278 136,-278 136,-275 139,-272 142,-272 142,-272 184,-272 184,-272 187,-272 190,-275 190,-278 190,-278 190,-284 190,-284 190,-287 187,-290 184,-290"/>
<text text-anchor="start" x="148.5" y="-278.8" font-family="Helvetica,sans-Serif" font-size="9.00">app.ts</text>
</a>
</g>
</g>
<!-- src/02&#45;interface&#45;adapters/controllers/invoice&#45;api.routes.ts -->
<g id="node2" class="node">
<title>src/02&#45;interface&#45;adapters/controllers/invoice&#45;api.routes.ts</title>
<g id="a_node2"><a xlink:href="src/02-interface-adapters/controllers/invoice-api.routes.ts" xlink:title="invoice&#45;api.routes.ts">
<path fill="#a2fdba" stroke="black" d="M168.5,-204C168.5,-204 73.5,-204 73.5,-204 70.5,-204 67.5,-201 67.5,-198 67.5,-198 67.5,-192 67.5,-192 67.5,-189 70.5,-186 73.5,-186 73.5,-186 168.5,-186 168.5,-186 171.5,-186 174.5,-189 174.5,-192 174.5,-192 174.5,-198 174.5,-198 174.5,-201 171.5,-204 168.5,-204"/>
<text text-anchor="start" x="75.5" y="-192.8" font-family="Helvetica,sans-Serif" font-size="9.00">invoice&#45;api.routes.ts</text>
</a>
</g>
</g>
<!-- src/01&#45;frameworks&#45;and&#45;drivers/app.ts&#45;&gt;src/02&#45;interface&#45;adapters/controllers/invoice&#45;api.routes.ts -->
<g id="edge1" class="edge">
<title>src/01&#45;frameworks&#45;and&#45;drivers/app.ts&#45;&gt;src/02&#45;interface&#45;adapters/controllers/invoice&#45;api.routes.ts</title>
<path fill="none" stroke="#000000" stroke-width="2" stroke-opacity="0.200000" d="M158.97,-271.95C151.82,-257.63 136.8,-227.6 127.95,-209.9"/>
<polygon fill="#000000" fill-opacity="0.200000" stroke="#000000" stroke-width="2" stroke-opacity="0.200000" points="129.76,-208.83 125.2,-204.4 126.01,-210.71 129.76,-208.83"/>
</g>
<!-- src/02&#45;interface&#45;adapters/repositories/DummyInvoiceRepository.ts -->
<g id="node3" class="node">
<title>src/02&#45;interface&#45;adapters/repositories/DummyInvoiceRepository.ts</title>
<g id="a_node3"><a xlink:href="src/02-interface-adapters/repositories/DummyInvoiceRepository.ts" xlink:title="DummyInvoiceRepository.ts">
<path fill="#a2fdba" stroke="black" d="M168,-144C168,-144 38,-144 38,-144 35,-144 32,-141 32,-138 32,-138 32,-132 32,-132 32,-129 35,-126 38,-126 38,-126 168,-126 168,-126 171,-126 174,-129 174,-132 174,-132 174,-138 174,-138 174,-141 171,-144 168,-144"/>
<text text-anchor="start" x="40" y="-132.8" font-family="Helvetica,sans-Serif" font-size="9.00">DummyInvoiceRepository.ts</text>
</a>
</g>
</g>
<!-- src/01&#45;frameworks&#45;and&#45;drivers/app.ts&#45;&gt;src/02&#45;interface&#45;adapters/repositories/DummyInvoiceRepository.ts -->
<g id="edge2" class="edge">
<title>src/01&#45;frameworks&#45;and&#45;drivers/app.ts&#45;&gt;src/02&#45;interface&#45;adapters/repositories/DummyInvoiceRepository.ts</title>
<path fill="none" stroke="#000000" stroke-width="2" stroke-opacity="0.200000" d="M135.77,-277.64C107.69,-274.58 66.69,-268.13 57,-256 35.36,-228.92 43.01,-209.72 57,-178 62.57,-165.36 74.04,-154.88 84.13,-147.55"/>
<polygon fill="#000000" fill-opacity="0.200000" stroke="#000000" stroke-width="2" stroke-opacity="0.200000" points="85.5,-149.15 89.24,-144.01 83.11,-145.7 85.5,-149.15"/>
</g>
<!-- src/03&#45;use&#45;cases/InvoiceUseCaseService.ts -->
<g id="node4" class="node">
<title>src/03&#45;use&#45;cases/InvoiceUseCaseService.ts</title>
<g id="a_node4"><a xlink:href="src/03-use-cases/InvoiceUseCaseService.ts" xlink:title="InvoiceUseCaseService.ts">
<path fill="#ffa09c" stroke="black" d="M343.5,-144C343.5,-144 224.5,-144 224.5,-144 221.5,-144 218.5,-141 218.5,-138 218.5,-138 218.5,-132 218.5,-132 218.5,-129 221.5,-126 224.5,-126 224.5,-126 343.5,-126 343.5,-126 346.5,-126 349.5,-129 349.5,-132 349.5,-132 349.5,-138 349.5,-138 349.5,-141 346.5,-144 343.5,-144"/>
<text text-anchor="start" x="226.5" y="-132.8" font-family="Helvetica,sans-Serif" font-size="9.00">InvoiceUseCaseService.ts</text>
</a>
</g>
</g>
<!-- src/01&#45;frameworks&#45;and&#45;drivers/app.ts&#45;&gt;src/03&#45;use&#45;cases/InvoiceUseCaseService.ts -->
<g id="edge3" class="edge">
<title>src/01&#45;frameworks&#45;and&#45;drivers/app.ts&#45;&gt;src/03&#45;use&#45;cases/InvoiceUseCaseService.ts</title>
<path fill="none" stroke="#000000" stroke-width="2" stroke-opacity="0.200000" d="M184.19,-271.83C192.56,-267.91 201.86,-262.61 209,-256 243.1,-224.45 267.75,-174.03 278.3,-149.84"/>
<polygon fill="#000000" fill-opacity="0.200000" stroke="#000000" stroke-width="2" stroke-opacity="0.200000" points="280.36,-150.35 280.79,-144.01 276.5,-148.7 280.36,-150.35"/>
</g>
<!-- src/03&#45;use&#45;cases/types.ts -->
<g id="node5" class="node">
<title>src/03&#45;use&#45;cases/types.ts</title>
<g id="a_node5"><a xlink:href="src/03-use-cases/types.ts" xlink:title="types.ts">
<path fill="#ffa09c" stroke="black" d="M266,-102C266,-102 224,-102 224,-102 221,-102 218,-99 218,-96 218,-96 218,-90 218,-90 218,-87 221,-84 224,-84 224,-84 266,-84 266,-84 269,-84 272,-87 272,-90 272,-90 272,-96 272,-96 272,-99 269,-102 266,-102"/>
<text text-anchor="start" x="226.5" y="-90.8" font-family="Helvetica,sans-Serif" font-size="9.00">types.ts</text>
</a>
</g>
</g>
<!-- src/01&#45;frameworks&#45;and&#45;drivers/app.ts&#45;&gt;src/03&#45;use&#45;cases/types.ts -->
<g id="edge4" class="edge">
<title>src/01&#45;frameworks&#45;and&#45;drivers/app.ts&#45;&gt;src/03&#45;use&#45;cases/types.ts</title>
<path fill="none" stroke="#000000" stroke-width="2" stroke-opacity="0.200000" d="M172.9,-271.57C177.26,-267.34 182.06,-261.86 185,-256 199.84,-226.48 193.05,-136.33 213,-110 214.2,-108.42 215.6,-106.98 217.13,-105.67"/>
<polygon fill="#000000" fill-opacity="0.200000" stroke="#000000" stroke-width="2" stroke-opacity="0.200000" points="218.39,-107.35 222.05,-102.15 215.95,-103.94 218.39,-107.35"/>
</g>
<!-- src/02&#45;interface&#45;adapters/controllers/invoice&#45;api.routes.ts&#45;&gt;src/02&#45;interface&#45;adapters/repositories/DummyInvoiceRepository.ts -->
<g id="edge7" class="edge">
<title>src/02&#45;interface&#45;adapters/controllers/invoice&#45;api.routes.ts&#45;&gt;src/02&#45;interface&#45;adapters/repositories/DummyInvoiceRepository.ts</title>
<path fill="none" stroke="#000000" stroke-width="2" stroke-opacity="0.200000" d="M118.5,-185.94C115.63,-176.69 110.87,-161.37 107.39,-150.13"/>
<polygon fill="#000000" fill-opacity="0.200000" stroke="#000000" stroke-width="2" stroke-opacity="0.200000" points="109.38,-149.48 105.6,-144.37 105.37,-150.72 109.38,-149.48"/>
</g>
<!-- src/02&#45;interface&#45;adapters/controllers/invoice&#45;api.routes.ts&#45;&gt;src/03&#45;use&#45;cases/InvoiceUseCaseService.ts -->
<g id="edge5" class="edge">
<title>src/02&#45;interface&#45;adapters/controllers/invoice&#45;api.routes.ts&#45;&gt;src/03&#45;use&#45;cases/InvoiceUseCaseService.ts</title>
<path fill="none" stroke="#000000" stroke-width="2" stroke-opacity="0.200000" d="M146.79,-185.99C161.06,-181.47 179.08,-175.62 195,-170 216.3,-162.48 240.2,-153.31 257.87,-146.39"/>
<polygon fill="#000000" fill-opacity="0.200000" stroke="#000000" stroke-width="2" stroke-opacity="0.200000" points="258.79,-148.28 263.61,-144.13 257.26,-144.37 258.79,-148.28"/>
</g>
<!-- src/02&#45;interface&#45;adapters/controllers/invoice&#45;api.routes.ts&#45;&gt;src/03&#45;use&#45;cases/types.ts -->
<g id="edge6" class="edge">
<title>src/02&#45;interface&#45;adapters/controllers/invoice&#45;api.routes.ts&#45;&gt;src/03&#45;use&#45;cases/types.ts</title>
<path fill="none" stroke="#000000" stroke-width="2" stroke-opacity="0.200000" d="M160.12,-185.93C169.33,-182.39 178.39,-177.3 185,-170 203.53,-149.55 182.36,-130.36 201,-110 204.09,-106.62 207.96,-103.95 212.11,-101.85"/>
<polygon fill="#000000" fill-opacity="0.200000" stroke="#000000" stroke-width="2" stroke-opacity="0.200000" points="213.24,-103.65 217.89,-99.31 211.55,-99.8 213.24,-103.65"/>
</g>
<!-- src/02&#45;interface&#45;adapters/repositories/DummyInvoiceRepository.ts&#45;&gt;src/03&#45;use&#45;cases/types.ts -->
<g id="edge8" class="edge">
<title>src/02&#45;interface&#45;adapters/repositories/DummyInvoiceRepository.ts&#45;&gt;src/03&#45;use&#45;cases/types.ts</title>
<path fill="none" stroke="#000000" stroke-width="2" stroke-opacity="0.200000" d="M130.98,-125.94C147.31,-121.25 168.31,-115.25 187,-110 195.01,-107.75 203.66,-105.35 211.76,-103.11"/>
<polygon fill="#000000" fill-opacity="0.200000" stroke="#000000" stroke-width="2" stroke-opacity="0.200000" points="212.61,-105.06 217.84,-101.44 211.5,-101.01 212.61,-105.06"/>
</g>
<!-- src/04&#45;entities/InvoiceEntity.ts -->
<g id="node6" class="node">
<title>src/04&#45;entities/InvoiceEntity.ts</title>
<g id="a_node6"><a xlink:href="src/04-entities/InvoiceEntity.ts" xlink:title="InvoiceEntity.ts">
<path fill="#fdfeba" stroke="black" d="M282,-42C282,-42 208,-42 208,-42 205,-42 202,-39 202,-36 202,-36 202,-30 202,-30 202,-27 205,-24 208,-24 208,-24 282,-24 282,-24 285,-24 288,-27 288,-30 288,-30 288,-36 288,-36 288,-39 285,-42 282,-42"/>
<text text-anchor="start" x="210" y="-30.8" font-family="Helvetica,sans-Serif" font-size="9.00">InvoiceEntity.ts</text>
</a>
</g>
</g>
<!-- src/02&#45;interface&#45;adapters/repositories/DummyInvoiceRepository.ts&#45;&gt;src/04&#45;entities/InvoiceEntity.ts -->
<g id="edge9" class="edge">
<title>src/02&#45;interface&#45;adapters/repositories/DummyInvoiceRepository.ts&#45;&gt;src/04&#45;entities/InvoiceEntity.ts</title>
<path fill="none" stroke="#000000" stroke-width="2" stroke-opacity="0.200000" d="M114.62,-125.82C139.81,-108.08 199.52,-66.03 228.56,-45.57"/>
<polygon fill="#000000" fill-opacity="0.200000" stroke="#000000" stroke-width="2" stroke-opacity="0.200000" points="229.92,-47.19 233.62,-42.02 227.5,-43.75 229.92,-47.19"/>
</g>
<!-- src/03&#45;use&#45;cases/InvoiceUseCaseService.ts&#45;&gt;src/03&#45;use&#45;cases/types.ts -->
<g id="edge11" class="edge">
<title>src/03&#45;use&#45;cases/InvoiceUseCaseService.ts&#45;&gt;src/03&#45;use&#45;cases/types.ts</title>
<path fill="none" stroke="#000000" stroke-width="2" stroke-opacity="0.200000" d="M276.11,-125.91C270.72,-120.38 263.46,-112.94 257.32,-106.63"/>
<polygon fill="#000000" fill-opacity="0.200000" stroke="#000000" stroke-width="2" stroke-opacity="0.200000" points="258.57,-104.91 252.88,-102.08 255.57,-107.84 258.57,-104.91"/>
</g>
<!-- src/03&#45;use&#45;cases/InvoiceUseCaseService.ts&#45;&gt;src/04&#45;entities/InvoiceEntity.ts -->
<g id="edge10" class="edge">
<title>src/03&#45;use&#45;cases/InvoiceUseCaseService.ts&#45;&gt;src/04&#45;entities/InvoiceEntity.ts</title>
<path fill="none" stroke="#000000" stroke-width="2" stroke-opacity="0.200000" d="M284.55,-125.78C285.02,-114.22 284.76,-92.7 278,-76 273.51,-64.9 265.14,-54.3 257.96,-46.53"/>
<polygon fill="#000000" fill-opacity="0.200000" stroke="#000000" stroke-width="2" stroke-opacity="0.200000" points="259.36,-44.95 253.69,-42.08 256.33,-47.86 259.36,-44.95"/>
</g>
<!-- src/03&#45;use&#45;cases/types.ts&#45;&gt;src/04&#45;entities/InvoiceEntity.ts -->
<g id="edge12" class="edge">
<title>src/03&#45;use&#45;cases/types.ts&#45;&gt;src/04&#45;entities/InvoiceEntity.ts</title>
<path fill="none" stroke="#000000" stroke-width="2" stroke-opacity="0.200000" d="M245,-83.94C245,-74.78 245,-59.65 245,-48.44"/>
<polygon fill="#000000" fill-opacity="0.200000" stroke="#000000" stroke-width="2" stroke-opacity="0.200000" points="247.1,-48.37 245,-42.37 242.9,-48.37 247.1,-48.37"/>
</g>
<!-- src/index.ts -->
<g id="node7" class="node">
<title>src/index.ts</title>
<g id="a_node7"><a xlink:href="src/index.ts" xlink:title="index.ts">
<path fill="#ddfeff" stroke="black" d="M184,-342C184,-342 142,-342 142,-342 139,-342 136,-339 136,-336 136,-336 136,-330 136,-330 136,-327 139,-324 142,-324 142,-324 184,-324 184,-324 187,-324 190,-327 190,-330 190,-330 190,-336 190,-336 190,-339 187,-342 184,-342"/>
<text text-anchor="start" x="144.5" y="-330.8" font-family="Helvetica,sans-Serif" font-size="9.00">index.ts</text>
</a>
</g>
</g>
<!-- src/index.ts&#45;&gt;src/01&#45;frameworks&#45;and&#45;drivers/app.ts -->
<g id="edge13" class="edge">
<title>src/index.ts&#45;&gt;src/01&#45;frameworks&#45;and&#45;drivers/app.ts</title>
<path fill="none" stroke="#000000" stroke-width="2" stroke-opacity="0.200000" d="M163,-323.74C163,-316.24 163,-305.02 163,-296.1"/>
<polygon fill="#000000" fill-opacity="0.200000" stroke="#000000" stroke-width="2" stroke-opacity="0.200000" points="165.1,-296.1 163,-290.1 160.9,-296.1 165.1,-296.1"/>
</g>
</g>
</svg>
